<svg width="103" height="28" viewBox="0 0 103 28" fill="none" xmlns="http://www.w3.org/2000/svg">
<g clip-path="url(#clip0_1_1241)">
<path d="M0 0.466064H20.0883V4.75596H4.71423V12.222H18.3518V16.5152H4.71423V27.5374H0V0.466064Z" fill="#34B9B9"/>
<path d="M24.0432 0.466064H28.7574V23.2442H42.9728V27.5374H24.0432V0.466064Z" fill="#34B9B9"/>
<path d="M60.179 23.6307C61.4435 23.6451 62.6964 23.3881 63.8534 22.8771C64.9373 22.3954 65.9122 21.6983 66.7189 20.828C67.5264 19.9425 68.1593 18.9119 68.5841 17.7907C69.0329 16.6055 69.2568 15.3467 69.2444 14.0792V13.9999C69.2559 12.726 69.032 11.461 68.5841 10.2685C68.1614 9.13692 67.521 8.09936 66.6991 7.21473C65.8768 6.33878 64.8895 5.63448 63.7939 5.14248C62.6318 4.63715 61.3784 4.37639 60.1114 4.37639C58.8444 4.37639 57.5909 4.63715 56.4288 5.14248C55.3432 5.62132 54.3678 6.31885 53.5633 7.19159C52.7541 8.07529 52.12 9.10488 51.6948 10.2256C51.2457 11.4119 51.0217 12.6718 51.0345 13.9404V14.0164C51.023 15.2903 51.2468 16.5554 51.6948 17.7478C52.1187 18.8798 52.7589 19.9182 53.5798 20.8049C54.4031 21.6788 55.3902 22.3818 56.4849 22.8738C57.6459 23.3962 58.9063 23.6601 60.179 23.6472V23.6307ZM60.0998 27.9999C58.1401 28.0246 56.1959 27.6502 54.3853 26.8993C52.7296 26.2126 51.2275 25.202 49.9668 23.9268C48.7061 22.6517 47.7121 21.1375 47.0432 19.473C46.3444 17.7613 45.9899 15.9283 46 14.0792V13.9999C45.9882 12.1463 46.3427 10.3087 47.0432 8.59291C47.7206 6.93092 48.7191 5.41917 49.9814 4.14438C51.3158 2.80296 52.9065 1.74459 54.6586 1.0325C56.4108 0.32041 58.2883 -0.0307851 60.179 -0.000102868C62.1401 -0.0250655 64.0857 0.350541 65.8969 1.10377C67.5613 1.79596 69.0709 2.81398 70.3371 4.0981C71.5815 5.3718 72.566 6.87607 73.2356 8.52681C73.9363 10.2391 74.2909 12.0735 74.2788 13.9239V13.9999C74.2906 15.8502 73.936 17.6846 73.2356 19.397C72.5643 21.0564 71.5726 22.567 70.3173 23.8422C69.0335 25.1357 67.5109 26.1673 65.8341 26.8795C64.0256 27.6433 62.079 28.0247 60.1163 27.9999H60.0998Z" fill="#34B9B9"/>
<path fill-rule="evenodd" clip-rule="evenodd" d="M102.525 0.47583V5.50275C97.378 5.96172 92.5993 8.36676 89.1612 12.2284C95.4351 15.5352 100.338 20.9583 103 27.5372H97.3483C94.9204 22.7634 91.0187 18.9013 86.223 16.5249C84.7556 19.3884 83.9906 22.5606 83.9913 25.7789C83.9913 26.3672 84.0178 26.9489 84.064 27.524H79.046C79.0064 26.9467 78.9866 26.365 78.9866 25.7789C78.981 21.956 79.8423 18.1816 81.5055 14.7402C80.7144 14.5341 79.9134 14.3686 79.1054 14.2445V9.04901C80.8786 9.27631 82.6277 9.66347 84.3314 10.2058C86.5119 7.39645 89.2588 5.0782 92.3934 3.40182C95.528 1.72544 98.9799 0.728489 102.525 0.47583Z" fill="#34B9B9"/>
<path fill-rule="evenodd" clip-rule="evenodd" d="M82.707 0.466064C83.36 0.466064 83.9982 0.659899 84.5411 1.02306C85.084 1.38622 85.5072 1.90238 85.757 2.5063C86.0069 3.11021 86.0723 3.77473 85.9449 4.41584C85.8175 5.05695 85.5031 5.64585 85.0414 6.10806C84.5797 6.57028 83.9915 6.88504 83.3511 7.01256C82.7107 7.14009 82.0469 7.07464 81.4437 6.8245C80.8405 6.57435 80.3249 6.15073 79.9621 5.60723C79.5994 5.06372 79.4058 4.42474 79.4058 3.77107C79.4058 2.89453 79.7536 2.05388 80.3727 1.43408C80.9918 0.814267 81.8315 0.466064 82.707 0.466064Z" fill="#34B9B9"/>
</g>
<defs>
<clipPath id="clip0_1_1241">
<rect width="103" height="28" fill="white"/>
</clipPath>
</defs>
</svg>
