<svg width="44" height="44" viewBox="0 0 44 44" fill="none" xmlns="http://www.w3.org/2000/svg">
<path d="M9.71609 31.1435H7.9577C7.02499 31.1435 6.13049 30.7685 5.47096 30.1008C4.81144 29.4332 4.44092 28.5277 4.44092 27.5835V9.7831C4.44092 8.83891 4.81144 7.93339 5.47096 7.26574C6.13049 6.5981 7.02499 6.22302 7.9577 6.22302H36.092C37.0247 6.22302 37.9192 6.5981 38.5787 7.26574C39.2382 7.93339 39.6088 8.83891 39.6088 9.7831V27.5835C39.6088 28.5277 39.2382 29.4332 38.5787 30.1008C37.9192 30.7685 37.0247 31.1435 36.092 31.1435H34.3336" stroke="white" stroke-width="3" stroke-linecap="round" stroke-linejoin="round"/>
<path d="M22.0249 27.5835L30.8168 38.2637H13.2329L22.0249 27.5835Z" stroke="white" stroke-width="3" stroke-linecap="round" stroke-linejoin="round"/>
</svg>
