<svg width="43" height="44" viewBox="0 0 43 44" fill="none" xmlns="http://www.w3.org/2000/svg">
<path d="M32.2523 15.1232C32.2523 12.2906 31.1408 9.57409 29.1622 7.57116C27.1836 5.56823 24.5001 4.44299 21.702 4.44299C18.9039 4.44299 16.2203 5.56823 14.2418 7.57116C12.2632 9.57409 11.1516 12.2906 11.1516 15.1232C11.1516 27.5835 5.87646 31.1435 5.87646 31.1435H37.5275C37.5275 31.1435 32.2523 27.5835 32.2523 15.1232Z" stroke="white" stroke-width="3" stroke-linecap="round" stroke-linejoin="round"/>
<path d="M24.7446 38.2637C24.4354 38.8032 23.9916 39.251 23.4577 39.5623C22.9237 39.8736 22.3183 40.0374 21.7021 40.0374C21.0859 40.0374 20.4806 39.8736 19.9466 39.5623C19.4126 39.251 18.9689 38.8032 18.6597 38.2637" stroke="white" stroke-width="3" stroke-linecap="round" stroke-linejoin="round"/>
</svg>
