<svg width="32" height="33" viewBox="0 0 32 33" fill="none" xmlns="http://www.w3.org/2000/svg">
<path d="M20.4222 15.7983C19.8068 15.7983 19.2863 15.583 18.8607 15.1522C18.4352 14.7214 18.223 14.1951 18.2242 13.5733C18.2242 12.9503 18.437 12.4234 18.8625 11.9926C19.288 11.5619 19.8079 11.3471 20.4222 11.3483C21.0376 11.3483 21.5581 11.5636 21.9836 11.9944C22.4092 12.4252 22.6214 12.9515 22.6202 13.5733C22.6202 14.1963 22.4074 14.7232 21.9819 15.154C21.5564 15.5847 21.0365 15.7995 20.4222 15.7983ZM11.6302 15.7983C11.0148 15.7983 10.4943 15.583 10.0688 15.1522C9.64325 14.7214 9.43107 14.1951 9.43224 13.5733C9.43224 12.9503 9.64501 12.4234 10.0705 11.9926C10.4961 11.5619 11.016 11.3471 11.6302 11.3483C12.2457 11.3483 12.7662 11.5636 13.1917 11.9944C13.6172 12.4252 13.8294 12.9515 13.8282 13.5733C13.8282 14.1963 13.6155 14.7232 13.1899 15.154C12.7644 15.5847 12.2445 15.7995 11.6302 15.7983ZM16.0262 25.1435C14.2678 25.1435 12.6776 24.654 11.2557 23.675C9.83374 22.696 8.78633 21.4055 8.11345 19.8034H23.939C23.2649 21.4055 22.2169 22.696 20.795 23.675C19.373 24.654 17.7834 25.1435 16.0262 25.1435ZM16.0262 32.2637C13.8282 32.2637 11.7691 31.8406 9.84898 30.9945C7.92882 30.1484 6.25834 29.0068 4.83756 27.5697C3.41678 26.1303 2.28907 24.4392 1.45442 22.4966C0.619767 20.554 0.201856 18.4696 0.200684 16.2434C0.200684 14.0183 0.618595 11.9339 1.45442 9.99008C2.29024 8.04628 3.41796 6.35525 4.83756 4.91698C6.25952 3.47871 7.92999 2.33711 9.84898 1.49219C11.768 0.647265 13.8271 0.224209 16.0262 0.223022C18.2242 0.223022 20.2833 0.646078 22.2034 1.49219C24.1236 2.3383 25.7941 3.4799 27.2149 4.91698C28.6356 6.35644 29.7639 8.04747 30.5998 9.99008C31.4356 11.9327 31.8529 14.0171 31.8517 16.2434C31.8517 18.4684 31.4338 20.5528 30.598 22.4966C29.7622 24.4404 28.6345 26.1315 27.2149 27.5697C25.7929 29.008 24.1224 30.1502 22.2034 30.9963C20.2845 31.8424 18.2254 32.2649 16.0262 32.2637ZM16.0262 28.7036C19.4258 28.7036 22.3271 27.4873 24.7303 25.0545C27.1334 22.6218 28.335 19.6848 28.335 16.2434C28.335 12.8019 27.1334 9.86489 24.7303 7.43217C22.3271 4.99945 19.4258 3.7831 16.0262 3.7831H15.4987C15.3229 3.7831 15.147 3.81276 14.9712 3.8721C14.7953 4.0501 14.6781 4.24294 14.6195 4.45061C14.5609 4.65828 14.5316 4.88078 14.5316 5.11812C14.5316 5.74114 14.7438 6.26803 15.1681 6.6988C15.5925 7.12956 16.113 7.34436 16.7296 7.34317C16.9933 7.34317 17.2354 7.29867 17.4558 7.20967C17.6762 7.12066 17.903 7.07616 18.1363 7.07616C18.488 7.07616 18.781 7.20967 19.0155 7.47667C19.2499 7.74368 19.3672 8.05518 19.3672 8.41119C19.3672 9.09354 19.0518 9.53143 18.4211 9.72486C17.7905 9.91829 17.2266 10.0144 16.7296 10.0132C15.4108 10.0132 14.2749 9.53083 13.3218 8.56605C12.3688 7.60127 11.8928 6.45196 11.894 5.11812V4.85112C11.894 4.76212 11.9086 4.64345 11.938 4.49511C9.50551 5.38513 7.52732 6.88333 6.00338 8.9897C4.47944 11.0961 3.71747 13.514 3.71747 16.2434C3.71747 19.6848 4.91904 22.6218 7.32217 25.0545C9.72531 27.4873 12.6267 28.7036 16.0262 28.7036Z" fill="white"/>
</svg>
