<svg width="32" height="39" viewBox="0 0 32 39" fill="none" xmlns="http://www.w3.org/2000/svg">
<path d="M23.0829 5.44287H26.5997C27.5324 5.44287 28.4269 5.81795 29.0864 6.48559C29.7459 7.15324 30.1165 8.05875 30.1165 9.00294V33.9235C30.1165 34.8676 29.7459 35.7732 29.0864 36.4408C28.4269 37.1085 27.5324 37.4835 26.5997 37.4835H5.49896C4.56625 37.4835 3.67175 37.1085 3.01222 36.4408C2.35269 35.7732 1.98218 34.8676 1.98218 33.9235V9.00294C1.98218 8.05875 2.35269 7.15324 3.01222 6.48559C3.67175 5.81795 4.56625 5.44287 5.49896 5.44287H9.01575" stroke="white" stroke-width="3" stroke-linecap="round" stroke-linejoin="round"/>
<path d="M21.3246 1.88293H10.7743C9.80313 1.88293 9.01587 2.67988 9.01587 3.66297V7.22304C9.01587 8.20613 9.80313 9.00308 10.7743 9.00308H21.3246C22.2957 9.00308 23.083 8.20613 23.083 7.22304V3.66297C23.083 2.67988 22.2957 1.88293 21.3246 1.88293Z" stroke="white" stroke-width="3" stroke-linecap="round" stroke-linejoin="round"/>
</svg>
